<svg width="17" height="17" viewBox="0 0 17 17" fill="none" xmlns="http://www.w3.org/2000/svg">
<path d="M6.0675 12.1349C9.41846 12.1349 12.135 9.41842 12.135 6.06746C12.135 5.68768 12.1001 5.31606 12.0333 4.95561C11.6729 4.88886 11.3012 4.85397 10.9215 4.85397C7.5705 4.85397 4.85401 7.57046 4.85401 10.9214C4.85401 11.3012 4.8889 11.6728 4.95565 12.0333C5.3161 12.1 5.68772 12.1349 6.0675 12.1349Z" fill="white"/>
<path fill-rule="evenodd" clip-rule="evenodd" d="M4.95561 12.0333C2.13565 11.511 0 9.03865 0 6.06746C0 2.71649 2.7165 0 6.06746 0C9.03865 0 11.511 2.13565 12.0333 4.95561C11.6728 4.88886 11.3012 4.85397 10.9214 4.85397C7.57047 4.85397 4.85397 7.57046 4.85397 10.9214C4.85397 11.3012 4.88886 11.6728 4.95561 12.0333Z" fill="#CDD0D8"/>
<path fill-rule="evenodd" clip-rule="evenodd" d="M6.06748 12.1349C9.41844 12.1349 12.1349 9.4184 12.1349 6.06743C12.1349 5.68765 12.1 5.31603 12.0333 4.95558C14.8533 5.47782 16.9889 7.95021 16.9889 10.9214C16.9889 14.2724 14.2724 16.9889 10.9214 16.9889C7.95025 16.9889 5.47787 14.8532 4.95563 12.0332C5.31607 12.1 5.6877 12.1349 6.06748 12.1349Z" fill="#CDD0D8"/>
</svg>
