<svg width="17" height="17" viewBox="0 0 17 17" fill="none" xmlns="http://www.w3.org/2000/svg">
<path d="M5.1266 7.84509C5.44409 6.6604 6.66185 5.44264 7.84654 5.12515L15.2324 3.14581C16.4171 2.82832 17.1202 3.53133 16.8027 4.71603L14.8233 12.1019C14.5058 13.2866 13.2881 14.5044 12.1034 14.8219L4.71747 16.8012C3.53278 17.1187 2.82977 16.4157 3.14726 15.231L5.1266 7.84509Z" fill="#CDD0D8"/>
<path d="M2.16564 4.88405C2.48312 3.69936 3.70088 2.4816 4.88557 2.16412L12.2715 0.184769C13.4562 -0.132716 14.1592 0.570295 13.8417 1.75499L11.8624 9.1409C11.5449 10.3256 10.3271 11.5433 9.14243 11.8608L1.75651 13.8402C0.571814 14.1577 -0.131197 13.4547 0.186288 12.27L2.16564 4.88405Z" fill="#CDD0D8"/>
</svg>
