<svg width="17" height="17" viewBox="0 0 17 17" fill="none" xmlns="http://www.w3.org/2000/svg">
<path fill-rule="evenodd" clip-rule="evenodd" d="M8.49444 13.308C11.1529 13.308 13.308 11.1529 13.308 8.49444C13.308 5.83601 11.1529 3.68093 8.49444 3.68093C5.83601 3.68093 3.68093 5.83601 3.68093 8.49444C3.68093 11.1529 5.83601 13.308 8.49444 13.308ZM8.49444 16.9889C13.1858 16.9889 16.9889 13.1858 16.9889 8.49444C16.9889 3.80309 13.1858 0 8.49444 0C3.80309 0 0 3.80309 0 8.49444C0 13.1858 3.80309 16.9889 8.49444 16.9889Z" fill="#CDD0D8"/>
<path d="M8.5916 8.68043C9.47621 7.79582 10.9104 7.79582 11.7951 8.68043L16.1998 13.0852C17.0844 13.9698 17.0844 15.404 16.1998 16.2886C15.3152 17.1733 13.881 17.1732 12.9964 16.2886L8.5916 11.8839C7.70699 10.9993 7.70699 9.56504 8.5916 8.68043Z" fill="#CDD0D8"/>
<path d="M9.8284 13.1207L12.6259 15.9182C13.9677 15.1699 15.0856 14.0683 15.8538 12.7393L13.0793 9.96468C12.5919 11.4857 11.3686 12.6774 9.8284 13.1207Z" fill="white"/>
</svg>
